<?xml version="1.0" encoding="iso-8859-1"?>
<!-- Uploaded to: SVG Repo, www.svgrepo.com, Generator: SVG Repo Mixer Tools -->
<svg width="24" height="24" version="1.1" id="Layer_1" xmlns="http://www.w3.org/2000/svg" xmlns:xlink="http://www.w3.org/1999/xlink" 
	 viewBox="0 0 512.001 512.001" xml:space="preserve">
<path style="fill:#E9E9E9;" d="M80.683,431.316c107.346,107.346,280.27,107.615,387.934,0.587c0.785-0.78,1.564-1.564,2.336-2.351
	c57.912-58.948,54.037-154.141-8.406-208.266c-37.55-32.548-72.909-46.297-99.222-72.611s-40.063-61.674-72.611-99.222
	C236.59-12.989,141.397-16.863,82.449,41.047c-0.787,0.772-1.571,1.552-2.351,2.336C-26.93,151.048-26.663,323.971,80.683,431.316
	L80.683,431.316z"/>
<path style="fill:#D4D4D4;" d="M80.683,431.316c107.346,107.346,280.27,107.615,387.934,0.587c0.785-0.78,1.564-1.564,2.336-2.351
	c57.912-58.948,54.037-154.141-8.406-208.266c-37.55-32.548-72.909-46.297-99.222-72.611
	C363.325,148.675,80.683,431.316,80.683,431.316L80.683,431.316z"/>
<circle style="fill:#D1393C;" cx="155.726" cy="356.275" r="39.157"/>
<path style="fill:#BC2029;" d="M183.421,328.58c15.293,15.293,15.293,40.087,0,55.381c-15.293,15.293-40.087,15.293-55.381,0
	L183.421,328.58z"/>
<circle style="fill:#80CDD8;" cx="285.351" cy="401.62" r="39.157"/>
<circle style="fill:#3A7484;" cx="401.619" cy="328.56" r="39.157"/>
<circle style="fill:#E68D2C;" cx="183.441" cy="110.381" r="39.157"/>
<circle style="fill:#E06B34;" cx="110.381" cy="226.65" r="39.157"/>
</svg>